<svg width="24" height="25" viewBox="0 0 24 25" fill="none" xmlns="http://www.w3.org/2000/svg">
<path d="M19.3078 14.3078L20.5791 15.5791C21.2878 16.2878 22.4995 15.7858 22.4995 14.7836V9.25C22.5 8.83562 22.1644 8.5 21.75 8.5H16.2159C15.2137 8.5 14.7117 9.71172 15.4205 10.4205L16.6917 11.6917L19.3078 14.3078ZM19.3078 14.3078L19.0603 14.0603L18.8128 14.3078L14.5603 18.5603C13.9748 19.1462 13.0252 19.1462 12.4392 18.5603L9.24749 15.3686L9.24751 15.3686L9 15.1211L8.75251 15.3686L8.75254 15.3686L6.84094 17.2806L19.3078 14.3078ZM2.65 22V22.35H3H23.25C23.4711 22.35 23.65 22.5289 23.65 22.75V24.25C23.65 24.4711 23.4711 24.65 23.25 24.65H1.5C0.865018 24.65 0.35 24.135 0.35 23.5V7.75C0.35 7.52892 0.528925 7.35 0.75 7.35H2.25C2.47108 7.35 2.65 7.52892 2.65 7.75V22ZM17.1867 12.1867L17.4342 11.9392L17.1867 11.6917L15.668 10.173C15.1797 9.68474 15.5255 8.85 16.2159 8.85H21.75C21.9712 8.85 22.1498 9.02891 22.1495 9.2496V9.25V14.7836C22.1495 15.474 21.3148 15.8198 20.8265 15.3316L19.3078 13.8128L19.0603 13.5653L18.8128 13.8128L14.3128 18.3128L14.3127 18.3129C13.864 18.762 13.136 18.7621 12.6867 18.3128L9.24749 14.8736L8.99997 14.6261L8.75249 14.8736L6.59345 17.0331C6.59344 17.0331 6.59344 17.0332 6.59343 17.0332C6.43714 17.1894 6.18392 17.1894 6.02764 17.0331L4.96733 15.9728C4.81105 15.8165 4.81105 15.5633 4.96733 15.407L8.18717 12.1872L8.18727 12.1871C8.63598 11.738 9.36399 11.7379 9.81329 12.1872L13.2525 15.6264L13.5 15.8739L13.7475 15.6264L17.1867 12.1867Z" fill="#E66262" stroke="white" stroke-width="0.7"/>
<rect x="2.74286" y="8.40265" width="21.2571" height="12.6234" fill="white"/>
<path d="M22 9L14.8109 16.847C14.4214 17.2723 13.7539 17.2807 13.3536 16.8655L11.0264 14.4513C10.6345 14.0447 9.98394 14.0431 9.59 14.4477L6.87186 17.2393" stroke="#E66262" stroke-width="1.5" stroke-linejoin="round"/>
<path d="M4.7111 19.8032C4.6002 19.811 4.50782 19.707 4.51312 19.5803L4.72691 14.4788C4.73461 14.2952 4.92909 14.2088 5.04391 14.3381L9.29735 19.126C9.41217 19.2552 9.33915 19.4783 9.17834 19.4896L4.7111 19.8032Z" fill="#E66262"/>
<circle cx="12" cy="5" r="5" fill="#E66262"/>
<path d="M9.71229 3.23704L10.9534 8.17434L10.3556 8.32463L9.27198 4.01414L9.24305 4.02142L8.23886 5.12481L8.08614 4.51729L9.11441 3.38734L9.71229 3.23704ZM14.0008 7.48006C13.6375 7.57137 13.3033 7.5503 12.9981 7.41685C12.6924 7.2818 12.4246 7.0424 12.1947 6.69865C11.9643 6.35329 11.7817 5.9122 11.6467 5.3754C11.5126 4.84181 11.4656 4.36921 11.5056 3.95758C11.5469 3.54394 11.6702 3.20535 11.8757 2.94182C12.0823 2.67628 12.3657 2.49826 12.7257 2.40776C13.0857 2.31726 13.4187 2.34034 13.7248 2.477C14.032 2.61164 14.3008 2.85165 14.5312 3.19701C14.7627 3.54036 14.9456 3.97882 15.0797 4.51241C15.2147 5.04921 15.2623 5.52423 15.2226 5.93747C15.1826 6.3491 15.0598 6.68668 14.8544 6.95021C14.6485 7.21213 14.364 7.38875 14.0008 7.48006ZM13.8674 6.94968C14.2275 6.85918 14.4635 6.61531 14.5755 6.21805C14.6875 5.8208 14.6627 5.30074 14.5011 4.65786C14.3937 4.23035 14.2563 3.87783 14.0892 3.60032C13.9236 3.3224 13.7359 3.1261 13.5259 3.01142C13.3176 2.89634 13.0944 2.86869 12.8566 2.92849C12.4998 3.01818 12.2652 3.26427 12.1528 3.66674C12.0399 4.06761 12.0641 4.58868 12.2253 5.22995C12.3328 5.65747 12.4691 6.00938 12.6343 6.28569C12.7994 6.56201 12.986 6.7569 13.1939 6.87038C13.4035 6.98345 13.628 7.00988 13.8674 6.94968Z" fill="white"/>
</svg>
