<svg width="35" height="37" viewBox="0 0 35 37" fill="none" xmlns="http://www.w3.org/2000/svg">
<path d="M21.2338 27.8176L27.7963 21.4009L30.0111 23.5665C31.0447 24.5772 32.8118 23.8613 32.8118 22.4323V14.5418C32.8125 13.9509 32.323 13.4723 31.7188 13.4723H23.6482C22.1867 13.4723 21.4546 15.2001 22.4882 16.2108L21.2338 27.8176ZM21.2338 27.8176C20.38 28.6531 18.995 28.6531 18.1405 27.8176M21.2338 27.8176H18.1405M18.1405 27.8176L13.125 22.9135L18.1405 27.8176ZM4.025 32.7223V33.0723H4.375H33.9062C34.3247 33.0723 34.65 33.4016 34.65 33.7918V35.9307C34.65 36.3209 34.3247 36.6501 33.9062 36.6501H2.1875C1.16543 36.6501 0.35 35.8416 0.35 34.8612V12.4029C0.35 12.0127 0.675296 11.6834 1.09375 11.6834H3.28125C3.6997 11.6834 4.025 12.0127 4.025 12.4029V32.7223ZM24.9477 18.6266L25.2036 18.3764L24.9477 18.1261L22.7329 15.9605C21.9356 15.181 22.4835 13.8223 23.6482 13.8223H31.7188C32.1373 13.8223 32.4623 14.1516 32.4618 14.5414V14.5418V22.4323C32.4618 23.5352 31.0794 24.1216 30.2558 23.3163L28.041 21.1507L27.7963 20.9114L27.5516 21.1507L20.9891 27.5673L20.989 27.5674C20.2713 28.2698 19.1037 28.2699 18.3852 27.5673L13.3697 22.6633L13.125 22.424L12.8803 22.6633L9.73168 25.7426C9.73167 25.7426 9.73166 25.7426 9.73165 25.7426C9.44042 26.0273 8.9653 26.0273 8.67409 25.7426L7.1278 24.2307C6.84096 23.9502 6.84096 23.499 7.1278 23.2186L11.8234 18.6273L11.8235 18.6272C12.5412 17.9249 13.7088 17.9248 14.4273 18.6273L19.4428 23.5314L19.6875 23.7707L19.9322 23.5314L24.9477 18.6266Z" fill="#D5B458" stroke="white" stroke-width="0.7"/>
<circle cx="16.5" cy="8.5" r="8.5" fill="#D5B458"/>
<path d="M12.6496 5.61886L14.7773 14.0828L13.7524 14.3404L11.8948 6.95103L11.8452 6.9635L10.1238 8.85504L9.86195 7.81358L11.6247 5.87651L12.6496 5.61886ZM20.0013 12.8926C19.3787 13.0491 18.8057 13.013 18.2824 12.7842C17.7585 12.5527 17.2994 12.1423 16.9052 11.553C16.5103 10.961 16.1972 10.2048 15.9658 9.28462C15.7359 8.36989 15.6553 7.55971 15.7239 6.85406C15.7947 6.14496 16.0061 5.56453 16.3583 5.11276C16.7126 4.65755 17.1983 4.35237 17.8155 4.19722C18.4326 4.04208 19.0035 4.08164 19.5282 4.31592C20.0549 4.54674 20.5157 4.95818 20.9106 5.55023C21.3075 6.13882 21.621 6.89048 21.8509 7.8052C22.0823 8.72544 22.1639 9.53976 22.096 10.2482C22.0273 10.9538 21.8169 11.5325 21.4647 11.9843C21.1118 12.4333 20.624 12.7361 20.0013 12.8926ZM19.7728 11.9834C20.3899 11.8282 20.7945 11.4102 20.9866 10.7292C21.1786 10.0482 21.1361 9.15662 20.8591 8.05454C20.6748 7.32166 20.4394 6.71735 20.1529 6.24161C19.8691 5.76518 19.5472 5.42866 19.1873 5.23207C18.8301 5.03479 18.4476 4.9874 18.0399 5.08991C17.4282 5.24366 17.026 5.66553 16.8333 6.35549C16.6399 7.04269 16.6814 7.93596 16.9577 9.03528C17.142 9.76816 17.3756 10.3714 17.6587 10.8451C17.9419 11.3188 18.2617 11.6529 18.6181 11.8474C18.9774 12.0413 19.3622 12.0866 19.7728 11.9834Z" fill="white"/>
</svg>
